<?xml version="1.0" encoding="UTF-8"?>
<svg version="1.1" xmlns="http://www.w3.org/2000/svg" width="1184" height="211">
<path d="M0 0 C15.18 0 30.36 0 46 0 C46.95102092 2.85306275 47.12650621 4.6194873 47.12939453 7.57788086 C47.13254669 8.50833725 47.13569885 9.43879364 47.13894653 10.39744568 C47.1369223 11.40968704 47.13489807 12.42192841 47.1328125 13.46484375 C47.13376923 14.52619034 47.13472595 15.58753693 47.13571167 16.68104553 C47.1363939 18.94662535 47.13453664 21.21220711 47.13037109 23.4777832 C47.12515532 26.83745135 47.13024397 30.19697743 47.13671875 33.55664062 C47.1272198 49.74759253 46.57867278 65.79716203 46 82 C73.06 82 100.12 82 128 82 C128 54.94 128 27.88 128 0 C143.18 0 158.36 0 174 0 C174 67.65 174 135.3 174 205 C158.82 205 143.64 205 128 205 C128 177.28 128 149.56 128 121 C100.94 121 73.88 121 46 121 C46.33 128.26 46.66 135.52 47 143 C47.08258099 148.15757261 47.14138483 153.30060202 47.1328125 158.45703125 C47.13349024 159.79082761 47.13446411 161.12462385 47.13571167 162.4584198 C47.13715587 165.1945417 47.1351359 167.93063014 47.13037109 170.66674805 C47.12455491 174.1770241 47.12804626 177.68722566 47.13394356 181.19749928 C47.13839679 184.57568283 47.13529795 187.95384557 47.1328125 191.33203125 C47.13483673 192.5921553 47.13686096 193.85227936 47.13894653 195.15058899 C47.13421829 196.87586067 47.13421829 196.87586067 47.12939453 198.63598633 C47.12859894 199.65106766 47.12780334 200.66614899 47.12698364 201.71199036 C47 204 47 204 46 205 C44.58774954 205.0928726 43.17091066 205.11746772 41.75561523 205.11352539 C40.85475693 205.11344986 39.95389862 205.11337433 39.02574158 205.11329651 C38.04658279 205.10813522 37.06742401 205.10297394 36.05859375 205.09765625 C35.06118668 205.0962413 34.0637796 205.09482635 33.03614807 205.09336853 C29.83656876 205.08775114 26.63705831 205.07519571 23.4375 205.0625 C21.27408955 205.05748724 19.11067801 205.05292395 16.94726562 205.04882812 C11.63148675 205.03777607 6.31574829 205.02102104 1 205 C-0.23951016 201.28146952 -0.13476574 197.84256246 -0.12025452 193.97053528 C-0.12110894 193.14309443 -0.12196337 192.31565358 -0.12284368 191.46313876 C-0.12449536 188.68088908 -0.11898218 185.89869923 -0.11352539 183.11645508 C-0.11324343 181.12589011 -0.11340143 179.13532504 -0.1139679 177.14476013 C-0.11425551 171.7318782 -0.10836461 166.31901831 -0.10139394 160.90614152 C-0.09515439 155.2526703 -0.09455612 149.59919862 -0.09336853 143.94572449 C-0.09025699 133.236031 -0.08204598 122.52634768 -0.07201904 111.81665868 C-0.06085241 99.62577042 -0.05534606 87.43488168 -0.05032361 75.24398959 C-0.03986324 50.16265278 -0.02151994 25.08132992 0 0 Z " fill="#440D70" transform="translate(205,0)"/>
<path d="M0 0 C14.85 0 29.7 0 45 0 C47.63049822 6.57624555 50.2135835 13.1485587 52.6796875 19.78515625 C53.01493439 20.68511826 53.35018127 21.58508026 53.69558716 22.51231384 C54.40036824 24.40536242 55.10453346 26.29864039 55.80810547 28.19213867 C56.86359727 31.03182223 57.92189769 33.87044749 58.98046875 36.70898438 C62.06353131 44.99000363 65.12265691 53.27584492 68.0390625 61.6171875 C71.37476365 71.15571145 74.936419 80.60723958 78.5 90.0625 C79.14468962 91.77663315 79.78922128 93.49082572 80.43359375 95.20507812 C82.85170642 101.63656023 85.27045126 108.06779722 87.69702148 114.49609375 C90.24647746 121.25866531 92.74231347 128.0298088 95.0625 134.875 C98.31866411 144.33630704 101.90433583 153.66418152 105.5 163 C109.1831764 172.56925327 112.85673867 182.1354214 116.25 191.8125 C116.66282227 192.98329102 116.66282227 192.98329102 117.08398438 194.17773438 C118.32033115 197.75697451 119.38282896 201.26023736 120 205 C114.69080711 205.74123423 109.51144541 206.15229788 104.14697266 206.16113281 C103.40774567 206.16609772 102.66851868 206.17106262 101.90689087 206.17617798 C99.49260494 206.19063534 97.07838436 206.19756857 94.6640625 206.203125 C93.83542065 206.20595238 93.00677879 206.20877975 92.15302658 206.21169281 C87.78056272 206.22660713 83.40813128 206.2358895 79.03564453 206.24023438 C74.5160578 206.2457533 69.99676716 206.26987431 65.47727394 206.29820633 C61.99953312 206.31677902 58.52186506 206.3220351 55.04407883 206.32357025 C53.3766452 206.32660206 51.70921302 206.33464834 50.04182816 206.34775543 C47.71986949 206.36472766 45.3986549 206.36295957 43.07666016 206.35644531 C42.38576294 206.3656601 41.69486572 206.37487488 40.98303223 206.3843689 C39.07192993 206.36749268 39.07192993 206.36749268 36 206 C33.47491599 202.21237399 33.31019349 198.72507659 32.875 194.3125 C32.78863281 193.53455078 32.70226562 192.75660156 32.61328125 191.95507812 C32.36978872 189.63803411 32.17048714 187.32351039 32 185 C31.9474707 184.2889209 31.89494141 183.5778418 31.84082031 182.84521484 C31.64728634 178.06037187 32.39728825 175.00629728 35 171 C36.75123431 169.16855649 38.56883653 167.39896247 40.4375 165.6875 C48.94303499 157.46242829 50.80929847 150.07521884 51.03997803 138.41717529 C50.89474161 129.63580449 49.42275865 120.87651447 48.25 112.1875 C47.98053022 110.09586258 47.71229438 108.00406581 47.4453125 105.91210938 C45.8923085 93.89402438 44.09540034 81.93528704 42 70 C40.515 69.505 40.515 69.505 39 69 C38.02575127 71.9227462 37.9097559 73.60934545 37.99414062 76.63574219 C38.0174646 77.57391785 38.04078857 78.51209351 38.06481934 79.47869873 C38.09499146 80.4911969 38.12516357 81.50369507 38.15625 82.546875 C38.195224 84.1137204 38.195224 84.1137204 38.23498535 85.71221924 C38.34627329 90.18467629 38.4698256 94.65677027 38.59326172 99.12890625 C38.68154833 102.3931247 38.76284691 105.65746649 38.84375 108.921875 C38.87392212 109.92627625 38.90409424 110.93067749 38.93518066 111.96551514 C39.18203841 122.02848553 39.18203841 122.02848553 38 127 C35 129 35 129 32.4375 128.875 C30 128 30 128 28.88500977 126.37475586 C27.72235537 123.25499328 27.58364762 120.45411956 27.40234375 117.12890625 C27.36342514 116.45801971 27.32450653 115.78713318 27.28440857 115.09591675 C27.16027749 112.91848925 27.04869967 110.74062279 26.9375 108.5625 C26.8550233 107.06970434 26.77185001 105.57694701 26.68798828 104.08422852 C26.44604344 99.72343962 26.22067554 95.36191063 26 91 C25.93925293 89.80987305 25.87850586 88.61974609 25.81591797 87.39355469 C25.52371117 81.59652073 25.25069512 75.79897392 25 70 C23.68 70 22.36 70 21 70 C20.96685699 70.59389023 20.93371399 71.18778046 20.89956665 71.79966736 C20.55130934 78.01386758 20.19265765 84.22740755 19.828125 90.44067383 C19.69365313 92.75562638 19.56177972 95.07073147 19.43261719 97.38598633 C19.24586756 100.72521327 19.04959696 104.06376931 18.8515625 107.40234375 C18.79626373 108.42770737 18.74096497 109.45307098 18.68399048 110.50950623 C18.31533869 116.54181816 17.47075518 122.13556281 16 128 C13.75 128.75 13.75 128.75 11 129 C8.84765625 127.65625 8.84765625 127.65625 7 125 C6.44456367 121.58006453 6.58355703 118.20497386 6.6875 114.75 C6.70296875 113.72326172 6.7184375 112.69652344 6.734375 111.63867188 C6.79715881 108.09138676 6.89583064 104.54630715 7 101 C7.03885234 99.58008571 7.07741637 98.1601635 7.11572266 96.74023438 C7.36871978 87.49196115 7.66802822 78.24576721 8 69 C6.68 69.33 5.36 69.66 4 70 C3.17635726 75.6144076 2.35883522 81.22966469 1.54638672 86.84570312 C1.27062416 88.74632384 0.99334053 90.64672463 0.71435547 92.546875 C-0.76665309 102.64125822 -2.15359696 112.73042341 -3.17578125 122.8828125 C-3.256539 123.68257507 -3.33729675 124.48233765 -3.42050171 125.30633545 C-5.49587582 143.33888071 -5.49587582 143.33888071 0.9921875 159.55078125 C3.27787047 162.08658104 5.62897951 164.54415595 8 167 C9.19724933 168.34845473 10.36784021 169.72145081 11.5 171.125 C12.19609375 171.96417969 12.19609375 171.96417969 12.90625 172.8203125 C16.02866094 179.04283144 14.92553914 186.15346989 14.125 192.8125 C13.98771484 194.0799707 13.98771484 194.0799707 13.84765625 195.37304688 C13.46525138 198.76352387 13.08340733 201.749778 12 205 C2.82284377 206.15058768 -6.30015381 206.16381069 -15.53125 206.16796875 C-17.21610542 206.17118687 -18.90096057 206.17455136 -20.58581543 206.17805481 C-24.09562835 206.18400834 -27.60541677 206.18589821 -31.11523438 206.18530273 C-35.61900372 206.18520038 -40.12261802 206.19894465 -44.6263504 206.21607494 C-48.0955071 206.22716163 -51.56462561 206.22922311 -55.03379822 206.22869301 C-56.69563846 206.22987461 -58.35747964 206.23430646 -60.01930237 206.24202538 C-62.3313415 206.25177431 -64.64303395 206.24896962 -66.95507812 206.24291992 C-68.92837097 206.24505745 -68.92837097 206.24505745 -70.94152832 206.24723816 C-74 206 -74 206 -76 204 C-75.58226318 202.89301758 -75.16452637 201.78603516 -74.73413086 200.64550781 C-73.14564618 196.43416428 -71.56032425 192.22163544 -69.97583008 188.00878906 C-69.29696964 186.20509215 -68.61731519 184.40169382 -67.93676758 182.59863281 C-64.33922815 173.06555276 -60.80247587 163.52085681 -57.47265625 153.890625 C-54.33795303 144.83524767 -50.94345509 135.89545408 -47.46203613 126.96844482 C-42.96545911 115.43088205 -38.48722085 103.90065183 -34.50219727 92.17456055 C-31.57955241 83.63079818 -28.32128249 75.2118263 -25.08105469 66.78466797 C-22.67904083 60.51606194 -20.3614527 54.22907016 -18.15234375 47.890625 C-14.69431341 37.98888593 -10.91190444 28.21719537 -7.125 18.4375 C-4.77375 12.353125 -2.4225 6.26875 0 0 Z " fill="#AC88CA" transform="translate(914,0)"/>
<path d="M0 0 C47.52 0 95.04 0 144 0 C144 35 144 35 143 37 C110.33 37 77.66 37 44 37 C44 51.85 44 66.7 44 82 C73.37 82 102.74 82 133 82 C134.58157077 85.16314153 134.1418935 88.56289543 134.1328125 92.03515625 C134.13376923 92.8290123 134.13472595 93.62286835 134.13571167 94.44078064 C134.13639251 96.11945678 134.1345449 97.79813555 134.13037109 99.47680664 C134.12501441 102.05556097 134.13032292 104.63414168 134.13671875 107.21289062 C134.13605809 108.84114622 134.13477718 110.46940171 134.1328125 112.09765625 C134.13483673 112.87367691 134.13686096 113.64969757 134.13894653 114.44923401 C134.11495583 119.88504417 134.11495583 119.88504417 133 121 C130.23061034 121.09517803 127.48622841 121.12554265 124.71655273 121.11352539 C123.41423203 121.11374443 123.41423203 121.11374443 122.08560181 121.1139679 C119.20157414 121.11326846 116.3176102 121.10547463 113.43359375 121.09765625 C111.43962133 121.09579218 109.44564845 121.09436823 107.45167542 121.09336853 C102.19254298 121.08954248 96.93343797 121.07971145 91.67431641 121.06866455 C85.3701255 121.05665815 79.06592544 121.05204861 72.76172638 121.04621124 C63.17446515 121.03649974 53.58726416 121.01734379 44 121 C44 136.18 44 151.36 44 167 C77.66 167 111.32 167 146 167 C146.87591135 171.37955676 147.13041297 175.28960388 147.09765625 179.70703125 C147.09553383 180.79512337 147.09553383 180.79512337 147.09336853 181.90519714 C147.08779931 184.2076745 147.07525261 186.51005235 147.0625 188.8125 C147.05748102 190.37955588 147.05291881 191.9466133 147.04882812 193.51367188 C147.03783998 197.34248589 147.02059673 201.17122611 147 205 C139.44708975 206.01759746 132.03299372 206.14175464 124.41796875 206.12939453 C123.06852674 206.13075202 121.71908511 206.1325339 120.36964417 206.13470459 C116.73178688 206.13923411 113.0939582 206.13750886 109.45610046 206.1343255 C105.64358446 206.13178281 101.8310708 206.13414436 98.01855469 206.13571167 C91.62678591 206.13752603 85.23502873 206.13514447 78.84326172 206.13037109 C71.44667164 206.12491123 64.05010906 206.12670652 56.65351963 206.1321975 C50.29753413 206.13672735 43.94155693 206.13738037 37.58557034 206.13475883 C33.79120367 206.13319774 29.99684997 206.13299809 26.20248413 206.13629532 C22.64346455 206.1391728 19.08448071 206.13720068 15.52546501 206.13140106 C13.58985824 206.12943812 11.65424847 206.13242712 9.71864319 206.13552856 C8.57753586 206.13270874 7.43642853 206.12988892 6.26074219 206.12698364 C5.26306824 206.12660662 4.26539429 206.12622959 3.23748779 206.12584114 C1 206 1 206 0 205 C-0.0978152 202.35714747 -0.12994267 199.74044247 -0.12025452 197.09715271 C-0.12110894 196.25917005 -0.12196337 195.42118739 -0.12284368 194.55781132 C-0.12450106 191.72789141 -0.11897293 188.89802976 -0.11352539 186.06811523 C-0.11324355 184.048289 -0.11340119 182.02846265 -0.1139679 180.00863647 C-0.11425599 174.50679614 -0.10835741 169.00497741 -0.10139394 163.50314212 C-0.0951623 157.76023895 -0.09455675 152.01733535 -0.09336853 146.27442932 C-0.09025465 135.39113107 -0.08204051 124.50784281 -0.07201904 113.62454897 C-0.05877492 98.92380481 -0.05335845 84.22305793 -0.04751682 69.5223093 C-0.03810065 46.34819871 -0.01818211 23.17410921 0 0 Z " fill="#AB88CA" transform="translate(676,0)"/>
<path d="M0 0 C14.52 0 29.04 0 44 0 C45.73550675 3.4710135 45.11911142 7.49730283 45.09765625 11.31713867 C45.09619598 12.28510376 45.09473572 13.25306885 45.0932312 14.25036621 C45.08941602 16.36146233 45.08328991 18.47255521 45.07516479 20.58363914 C45.06239195 23.94641634 45.05588062 27.30915394 45.05102539 30.67195129 C45.03765041 39.04478979 45.01373682 47.41759192 44.98962402 55.79040527 C44.96967889 62.83391944 44.95411319 69.8774183 44.94406128 76.92095375 C44.93769161 80.19449727 44.92517269 83.46797727 44.91235352 86.74150085 C44.88633021 96.9946499 44.9937159 107.23153125 45.390625 117.4777832 C45.42280624 118.40370616 45.45498749 119.32962912 45.48814392 120.28361034 C45.96161052 130.9644448 47.63876264 141.17190485 54 150 C54.639375 150.99 55.27875 151.98 55.9375 153 C61.04715263 159.05174484 70.37519381 162.05879646 78 163 C87.83049839 163.67796541 98.38624854 161.57240877 106 155 C108.34211566 152.51082127 110.21282365 149.90948054 112 147 C112.5878125 146.05060547 112.5878125 146.05060547 113.1875 145.08203125 C120.99573532 130.24064279 118.26180626 109.0246243 118.1953125 92.87109375 C118.1915749 90.18253756 118.18863285 87.49399209 118.18673706 84.80543518 C118.18057346 78.49838352 118.16423366 72.19140296 118.14403808 65.88438231 C118.12151754 58.69187382 118.11064545 51.49936156 118.10064721 44.30682647 C118.07986152 29.53784329 118.04325115 14.76893606 118 0 C132.85 0 147.7 0 163 0 C163.04533533 15.87399209 163.08209808 31.74793198 163.10362434 47.62197018 C163.1138898 54.99434177 163.12785837 62.36666996 163.15087891 69.73901367 C163.17095902 76.1728125 163.1837507 82.60657985 163.18817699 89.04040915 C163.19075992 92.43974399 163.19672915 95.8389889 163.21146011 99.2382946 C163.33269217 130.72136236 162.06365796 160.9833738 139.375 185.125 C122.92340513 200.8994713 102.44551913 206.39798368 79.94287109 206.30273438 C59.34269058 205.83405532 39.56071767 199.72454833 24.30078125 185.48046875 C19.31391316 180.10413388 14.89623374 174.21073956 11 168 C10.39720215 167.06111938 10.39720215 167.06111938 9.78222656 166.10327148 C6.10791094 160.02289379 4.54904307 154.13171346 3.25 147.1875 C2.93869141 145.71120117 2.93869141 145.71120117 2.62109375 144.20507812 C-1.02591656 125.53473822 -0.13936689 106.03660363 -0.09765625 87.109375 C-0.09578616 84.58205188 -0.09436506 82.0547284 -0.09336853 79.52740479 C-0.0899736 73.61359509 -0.08213715 67.69980507 -0.07201904 61.78600335 C-0.06073191 55.0383913 -0.05531614 48.29077819 -0.05032361 41.54315901 C-0.03994982 27.69542691 -0.0216558 13.84771882 0 0 Z " fill="#430C6F" transform="translate(407,0)"/>
<path d="M0 0 C59.07 0 118.14 0 179 0 C179 11.88 179 23.76 179 36 C177.18502618 37.81497382 174.36404428 37.17235393 171.91967773 37.20532227 C169.96776772 37.2352401 169.96776772 37.2352401 167.97642517 37.26576233 C166.5454826 37.28274799 165.11453875 37.29962675 163.68359375 37.31640625 C162.2277008 37.33696906 160.77181391 37.35796534 159.31593323 37.37937927 C155.47727353 37.43466961 151.63855935 37.48404802 147.79980469 37.53222656 C143.88536712 37.58239091 139.97100904 37.63810336 136.05664062 37.69335938 C128.37116099 37.80102603 120.68561543 37.90245193 113 38 C113.00092179 38.84244672 113.00184359 39.68489344 113.00279331 40.55286884 C113.02485894 61.03304269 113.04141665 81.51321449 113.05181217 101.99339771 C113.05697274 111.8973769 113.06401089 121.80134816 113.07543945 131.70532227 C113.08539358 140.33565819 113.09185517 148.96598837 113.09408849 157.59632987 C113.09539436 162.16778663 113.09847239 166.73922697 113.10573006 171.31067848 C113.11250175 175.61073853 113.1146146 179.91077535 113.11310768 184.21084023 C113.11338349 185.7915001 113.11538182 187.37216073 113.11920547 188.95281601 C113.12416063 191.10629357 113.12299151 193.25968274 113.12025452 195.41316223 C113.12117631 196.61978925 113.1220981 197.82641626 113.12304783 199.06960773 C113 202 113 202 112 205 C96.82 205 81.64 205 66 205 C66 149.56 66 94.12 66 37 C44.22 37 22.44 37 0 37 C0 24.79 0 12.58 0 0 Z " fill="#440C71" transform="translate(0,0)"/>
<path d="M0 0 C53.79 0 107.58 0 163 0 C163 12.21 163 24.42 163 37 C144.19 37 125.38 37 106 37 C106 92.44 106 147.88 106 205 C99.24828443 206.12528593 99.24828443 206.12528593 95.93823242 206.12939453 C95.20114548 206.13254669 94.46405853 206.13569885 93.70463562 206.13894653 C92.92941055 206.1369223 92.15418549 206.13489807 91.35546875 206.1328125 C90.13988029 206.13424759 90.13988029 206.13424759 88.8997345 206.13571167 C87.19788535 206.13638894 85.49603356 206.1345664 83.79418945 206.13037109 C81.17849016 206.12498144 78.56295987 206.13034917 75.94726562 206.13671875 C74.29166629 206.13605857 72.63606705 206.13477866 70.98046875 206.1328125 C70.19512253 206.13483673 69.40977631 206.13686096 68.60063171 206.13894653 C63.11497447 206.11497447 63.11497447 206.11497447 62 205 C61.90304682 202.83573826 61.87813235 200.66824747 61.87974548 198.5018158 C61.87889106 197.81492457 61.87803663 197.12803335 61.87715632 196.42032725 C61.87549955 194.10172545 61.88102607 191.78319483 61.88647461 189.46459961 C61.88675646 187.80930076 61.88659878 186.15400178 61.8860321 184.498703 C61.88574406 179.99063067 61.89164181 175.48258471 61.89860606 170.97451854 C61.90483855 166.26862263 61.90544332 161.56272618 61.90663147 156.85682678 C61.9097451 147.93911366 61.91795891 139.02141273 61.92798096 130.10370499 C61.93914112 119.95393703 61.9446523 109.8041685 61.94967639 99.65439594 C61.96014149 78.76959047 61.97774154 57.884796 62 37 C61.23800797 37.00222061 60.47601593 37.00444122 59.69093323 37.00672913 C52.52448288 37.02673157 45.35804599 37.04197388 38.19157505 37.05181217 C34.50685502 37.05704008 30.82215797 37.06413605 27.13745117 37.07543945 C23.58429169 37.08627162 20.03115437 37.09227753 16.47797966 37.09487724 C15.11954334 37.0967309 13.76110829 37.10035038 12.40268135 37.10573006 C10.50617777 37.11294475 8.60965207 37.11340809 6.71313477 37.11352539 C5.09097801 37.11685631 5.09097801 37.11685631 3.43605042 37.12025452 C1 37 1 37 0 36 C0 24.12 0 12.24 0 0 Z " fill="#AB87CA" transform="translate(1021,0)"/>
<path d="M0 0 C23.1 0 46.2 0 70 0 C70.33 10.23 70.66 20.46 71 31 C69.13199637 32.86800363 65.98360481 32.13757653 63.49243164 32.14526367 C62.81274826 32.14862228 62.13306488 32.1519809 61.43278503 32.15544128 C59.17522376 32.16497745 56.91773644 32.16689573 54.66015625 32.16796875 C53.09695911 32.17117951 51.53376229 32.17454344 49.9705658 32.17805481 C46.68943586 32.18405278 43.4083323 32.18589403 40.12719727 32.18530273 C35.91574556 32.18520108 31.70446233 32.19885364 27.49305058 32.21607494 C24.26321125 32.2271751 21.0334129 32.22922256 17.80355644 32.22869301 C16.2505682 32.22987612 14.69757901 32.2343163 13.14460945 32.24202538 C10.97527277 32.25178539 8.80630508 32.24896328 6.63696289 32.24291992 C5.40087784 32.24434494 4.16479279 32.24576996 2.89125061 32.24723816 C0 32 0 32 -2 30 C-1.34 30 -0.68 30 0 30 C0 20.1 0 10.2 0 0 Z " fill="#450D71" transform="translate(589,89)"/>
<path d="M0 0 C0.66 0 1.32 0 2 0 C2 67.65 2 135.3 2 205 C-13.18 205 -28.36 205 -44 205 C-44 177.94 -44 150.88 -44 123 C-41.57330717 126.64003924 -41.73088613 129.2972515 -41.77294922 133.50073242 C-41.77265717 134.26194901 -41.77236511 135.02316559 -41.77206421 135.80744934 C-41.77345757 138.32357176 -41.78901893 140.83939806 -41.8046875 143.35546875 C-41.80841761 145.09995868 -41.81126459 146.84445071 -41.81326294 148.58894348 C-41.82089955 153.18063134 -41.84054829 157.77219269 -41.8626709 162.36383057 C-41.88672553 167.87293636 -41.89591018 173.38208445 -41.90757751 178.89122772 C-41.92697267 187.26090647 -41.96529499 195.63030763 -42 204 C-28.47 203.67 -14.94 203.34 -1 203 C0.23221075 199.30336775 0.13482456 195.89525924 0.12025452 192.04646301 C0.12110894 191.22718927 0.12196337 190.40791552 0.12284368 189.5638153 C0.12449528 186.80920447 0.11898232 184.05465408 0.11352539 181.30004883 C0.11324342 179.32918804 0.11340144 177.35832715 0.1139679 175.38746643 C0.1142555 170.02830171 0.10836471 164.66915924 0.10139394 159.3099997 C0.09515427 153.71258293 0.09455611 148.11516568 0.09336853 142.51774597 C0.09025703 131.91430033 0.08204607 121.31086497 0.07201904 110.70742387 C0.0608523 98.63745231 0.05534604 86.56748027 0.05032361 74.49750483 C0.03986332 49.66499752 0.02226736 24.83249933 0 0 Z " fill="#361253" transform="translate(377,0)"/>
<path d="M0 0 C0.66 0 1.32 0 2 0 C3.12863471 3.38590414 3.12301583 5.94053798 3.12025452 9.51091003 C3.12110894 10.17500879 3.12196337 10.83910755 3.12284368 11.52333051 C3.12449328 13.75280426 3.11898562 15.98220308 3.11352539 18.21166992 C3.11324338 19.80815123 3.11340152 21.40463266 3.1139679 23.00111389 C3.11425533 27.33965217 3.10836726 31.67816292 3.10139394 36.01669478 C3.09515148 40.54907705 3.09455589 45.08145992 3.09336853 49.61384583 C3.09025786 58.19858249 3.082048 66.78330645 3.07201904 75.36803752 C3.06084974 85.14059173 3.05534539 94.91314654 3.05032361 104.68570554 C3.03986519 124.79047903 3.02152296 144.8952351 3 165 C16.86 165 30.72 165 45 165 C44.98259766 155.89664063 44.98259766 155.89664063 44.96484375 146.609375 C44.95972904 142.74479059 44.95491468 138.88021039 44.95117188 135.015625 C44.94521411 128.89322025 44.93819644 122.77083059 44.92456055 116.6484375 C44.91362636 111.70768316 44.90770102 106.76694502 44.90512276 101.8261795 C44.90328737 99.94932043 44.89970365 98.07246215 44.89426994 96.19561005 C44.86709932 86.41393831 44.90946185 76.73671037 46 67 C46.33 67 46.66 67 47 67 C47.02314249 79.72579723 47.04092485 92.45158948 47.05181217 105.17740345 C47.05703681 111.08613133 47.0641269 116.99484484 47.07543945 122.90356445 C47.08628316 128.60288828 47.09228 134.30219826 47.09487724 140.0015316 C47.0967288 142.17889308 47.10034429 144.35625378 47.10573006 146.53360939 C47.11296012 149.57686644 47.1139901 152.62006586 47.11352539 155.66333008 C47.11712067 156.56891663 47.12071594 157.47450317 47.12442017 158.40753174 C47.1230455 159.23624283 47.12167084 160.06495392 47.12025452 160.91877747 C47.12117631 161.63869779 47.1220981 162.35861811 47.12304783 163.10035419 C47 165 47 165 46 168 C30.82 168 15.64 168 0 168 C0 112.56 0 57.12 0 0 Z " fill="#3F155F" transform="translate(66,37)"/>
<path d="M0 0 C0.66 0 1.32 0 2 0 C2 11.55 2 23.1 2 35 C21.8 35 41.6 35 62 35 C64.10502513 39.21005026 64.2573403 41.10018646 64.2784729 45.70709229 C64.2842653 46.38021257 64.2900577 47.05333286 64.29602563 47.74685073 C64.31302209 50.00087881 64.31590178 52.25470209 64.31884766 54.50878906 C64.32814609 56.12512718 64.33831464 57.74146048 64.34928894 59.35778809 C64.3766126 63.74583083 64.39174536 68.13384142 64.40471697 72.52194691 C64.42033715 77.10774744 64.44713092 81.69348222 64.4727478 86.27923584 C64.5195553 94.96307311 64.55628988 103.64692271 64.58942068 112.33082175 C64.62762813 122.21710317 64.6770419 132.10331859 64.72740483 141.98954439 C64.83075401 162.32631421 64.92000471 182.6631258 65 203 C65.66 203.33 66.32 203.66 67 204 C66.67 204.66 66.34 205.32 66 206 C64.68 205.67 63.36 205.34 62 205 C62 149.56 62 94.12 62 37 C41.87 37 21.74 37 1 37 C0 36 0 36 -0.11352539 32.58178711 C-0.11336628 31.06363012 -0.10767226 29.54546771 -0.09765625 28.02734375 C-0.0962413 27.22970108 -0.09482635 26.43205841 -0.09336853 25.61024475 C-0.08775316 23.05262565 -0.07519812 20.49509282 -0.0625 17.9375 C-0.05748698 16.20768355 -0.05292373 14.47786574 -0.04882812 12.74804688 C-0.03777875 8.49866447 -0.02050386 4.24934688 0 0 Z " fill="#9B82B2" transform="translate(1021,0)"/>
<path d="M0 0 C23.1 0 46.2 0 70 0 C70.33 10.23 70.66 20.46 71 31 C69.13199637 32.86800363 65.98360481 32.13757653 63.49243164 32.14526367 C62.81274826 32.14862228 62.13306488 32.1519809 61.43278503 32.15544128 C59.17522376 32.16497745 56.91773644 32.16689573 54.66015625 32.16796875 C53.09695911 32.17117951 51.53376229 32.17454344 49.9705658 32.17805481 C46.68943586 32.18405278 43.4083323 32.18589403 40.12719727 32.18530273 C35.91574556 32.18520108 31.70446233 32.19885364 27.49305058 32.21607494 C24.26321125 32.2271751 21.0334129 32.22922256 17.80355644 32.22869301 C16.2505682 32.22987612 14.69757901 32.2343163 13.14460945 32.24202538 C10.97527277 32.25178539 8.80630508 32.24896328 6.63696289 32.24291992 C5.40087784 32.24434494 4.16479279 32.24576996 2.89125061 32.24723816 C0 32 0 32 -2 30 C-1.34 30 -0.68 30 0 30 C0 20.1 0 10.2 0 0 Z M2 2 C2 11.24 2 20.48 2 30 C23.78 30 45.56 30 68 30 C68.7455625 26.2721875 69.1281059 23.44452297 69.1328125 19.734375 C69.13410156 18.76242188 69.13539063 17.79046875 69.13671875 16.7890625 C69.13285156 15.78617188 69.12898437 14.78328125 69.125 13.75 C69.12886719 12.73164062 69.13273438 11.71328125 69.13671875 10.6640625 C69.13542969 9.69726562 69.13414062 8.73046875 69.1328125 7.734375 C69.13112061 6.40744629 69.13112061 6.40744629 69.12939453 5.05371094 C69.22769098 3.00727625 69.22769098 3.00727625 68 2 C65.94443339 1.90586313 63.88559819 1.88257002 61.82788086 1.88647461 C60.86205833 1.88625557 60.86205833 1.88625557 59.87672424 1.8860321 C57.73939697 1.88673115 55.60215587 1.89452309 53.46484375 1.90234375 C51.98653715 1.90420796 50.50822993 1.90563185 49.02992249 1.90663147 C45.13201198 1.91045641 41.23413851 1.92028648 37.33624268 1.93133545 C33.36153667 1.94155008 29.38682471 1.9461292 25.41210938 1.95117188 C17.60805404 1.96190878 9.80403692 1.97950538 2 2 Z " fill="#391854" transform="translate(589,89)"/>
<path d="M0 0 C0.66 0 1.32 0 2 0 C2.0246501 5.10863896 2.04283607 10.21724359 2.05493164 15.32592773 C2.05997204 17.06519168 2.0668043 18.80445136 2.07543945 20.54370117 C2.08751792 23.03825937 2.09323108 25.53276173 2.09765625 28.02734375 C2.10281754 28.80963852 2.10797882 29.59193329 2.11329651 30.39793396 C2.11349226 32.26567114 2.06199694 34.13329204 2 36 C0.18502618 37.81497382 -2.63595572 37.17235393 -5.08032227 37.20532227 C-6.39987915 37.22550415 -7.71943604 37.24568604 -9.07897949 37.26647949 C-10.49145355 37.28325087 -11.90392914 37.29989411 -13.31640625 37.31640625 C-15.23157043 37.34438293 -15.23157043 37.34438293 -17.1854248 37.3729248 C-21.97770946 37.44148132 -26.77011366 37.5014643 -31.5625 37.5625 C-47.6190625 37.7790625 -47.6190625 37.7790625 -64 38 C-64 59.45 -64 80.9 -64 103 C-66.74837013 100.25162987 -66.25916264 98.68620926 -66.2746582 94.83789062 C-66.28419022 93.54314819 -66.29372223 92.24840576 -66.30354309 90.91442871 C-66.3032817 89.49503553 -66.30234482 88.07564234 -66.30078125 86.65625 C-66.30466644 85.2065824 -66.30900074 83.75691595 -66.31376648 82.30725098 C-66.32123394 79.26745922 -66.32093341 76.22778359 -66.31567383 73.18798828 C-66.30987464 69.28696843 -66.32681795 65.38642268 -66.3500185 61.48548126 C-66.36472838 58.4915284 -66.3656314 55.49769048 -66.36250877 52.50370789 C-66.36302325 51.06515055 -66.36828464 49.62658699 -66.37832069 48.18806458 C-66.39061497 46.17944947 -66.38197764 44.17073886 -66.37231445 42.16210938 C-66.37294388 41.01786499 -66.3735733 39.87362061 -66.3742218 38.69470215 C-66.25072861 37.80545044 -66.12723541 36.91619873 -66 36 C-62.51270926 33.67513951 -61.18932705 33.76025434 -57.07568359 33.78881836 C-55.85787201 33.79219711 -54.64006042 33.79557587 -53.38534546 33.79905701 C-52.06966583 33.81251663 -50.75398621 33.82597626 -49.3984375 33.83984375 C-48.03749006 33.84611419 -46.67653752 33.85135427 -45.31558228 33.85560608 C-41.73530701 33.86890453 -38.15520255 33.89334055 -34.57501221 33.92095947 C-28.83711594 33.96409916 -23.09917184 33.9937388 -17.36116409 34.0170002 C-15.35300007 34.02725661 -13.34487631 34.04459622 -11.33676147 34.06199646 C-9.51950058 34.07179283 -9.51950058 34.07179283 -7.66552734 34.08178711 C-6.59313812 34.09004013 -5.5207489 34.09829315 -4.41586304 34.10679626 C-2.04951795 34.2745809 -2.04951795 34.2745809 -1 33 C-0.84019563 30.55391002 -0.74070553 28.13268942 -0.68359375 25.68359375 C-0.6524221 24.58701195 -0.6524221 24.58701195 -0.62062073 23.46827698 C-0.55504976 21.12478344 -0.49620568 18.78117461 -0.4375 16.4375 C-0.39432192 14.85220145 -0.35070787 13.26691471 -0.30664062 11.68164062 C-0.1993608 7.78787963 -0.0981151 3.89400228 0 0 Z " fill="#260D41" transform="translate(177,0)"/>
<path d="M0 0 C0.66 0 1.32 0 2 0 C3.19671077 3.59013232 3.15237455 6.86785668 3.15771484 10.60498047 C3.16279556 11.37767273 3.16787628 12.15036499 3.17311096 12.94647217 C3.18380945 14.62431582 3.19243168 16.3021737 3.19923019 17.98003769 C3.21102331 20.63651729 3.23047699 23.29283463 3.25234985 25.94924927 C3.31395379 33.50208129 3.36801664 41.05489633 3.40136719 48.60791016 C3.42231699 53.22805171 3.45762187 57.84789673 3.50212479 62.4678688 C3.51628167 64.22766758 3.52500652 65.98751881 3.52817917 67.74737167 C3.5330902 70.21064011 3.55625215 72.67312199 3.58349609 75.13623047 C3.58048996 75.86160004 3.57748383 76.5869696 3.5743866 77.33432007 C3.64782516 81.80743832 4.61225072 84.28505221 7 88 C6.67 88.99 6.34 89.98 6 91 C6.66 91.33 7.32 91.66 8 92 C7.82597656 92.70511719 7.65195312 93.41023438 7.47265625 94.13671875 C6.96683015 97.20093804 7.10342727 99.73160701 7.4375 102.8125 C7.53933594 103.78832031 7.64117187 104.76414062 7.74609375 105.76953125 C7.82988281 106.50558594 7.91367187 107.24164063 8 108 C7.34 107.67 6.68 107.34 6 107 C4.81926243 103.3158407 4.19047688 99.47919664 3.4375 95.6875 C3.21642578 94.66720703 2.99535156 93.64691406 2.76757812 92.59570312 C-1.23694534 72.71826489 -0.13326568 52.06353077 -0.06866455 31.88586426 C-0.05825174 28.27808229 -0.05382933 24.67029281 -0.04882812 21.0625 C-0.03825029 14.04164896 -0.02128899 7.02082745 0 0 Z " fill="#2F0E5E" transform="translate(407,52)"/>
<path d="M0 0 C0.33 0 0.66 0 1 0 C1.02314249 12.72579723 1.04092485 25.45158948 1.05181217 38.17740345 C1.05703681 44.08613133 1.0641269 49.99484484 1.07543945 55.90356445 C1.08628316 61.60288828 1.09228 67.30219826 1.09487724 73.0015316 C1.0967288 75.17889308 1.10034429 77.35625378 1.10573006 79.53360939 C1.11296012 82.57686644 1.1139901 85.62006586 1.11352539 88.66333008 C1.11712067 89.56891663 1.12071594 90.47450317 1.12442017 91.40753174 C1.1230455 92.23624283 1.12167084 93.06495392 1.12025452 93.91877747 C1.12117631 94.63869779 1.1220981 95.35861811 1.12304783 96.10035419 C1 98 1 98 0 101 C-14.19 101 -28.38 101 -43 101 C-43.33 100.34 -43.66 99.68 -44 99 C-29.81 98.67 -15.62 98.34 -1 98 C-1.01740234 88.89664063 -1.01740234 88.89664063 -1.03515625 79.609375 C-1.04027096 75.74479059 -1.04508532 71.88021039 -1.04882812 68.015625 C-1.05478589 61.89322025 -1.06180356 55.77083059 -1.07543945 49.6484375 C-1.08637364 44.70768316 -1.09229898 39.76694502 -1.09487724 34.8261795 C-1.09671263 32.94932043 -1.10029635 31.07246215 -1.10573006 29.19561005 C-1.13290068 19.41393831 -1.09053815 9.73671037 0 0 Z " fill="#270E3D" transform="translate(112,104)"/>
<path d="M0 0 C0.33 0 0.66 0 1 0 C1.57902192 27.50354122 -1.15288643 55.51570612 -20.4921875 76.734375 C-25.0015947 81.36713984 -29.50964826 85.56853016 -35 89 C-35.66 89 -36.32 89 -37 89 C-37 88.34 -37 87.68 -37 87 C-35.34467377 85.98133771 -33.67739862 84.98189187 -32 84 C-31.505 83.01 -31.505 83.01 -31 82 C-30.01 82 -29.02 82 -28 82 C-28 81.34 -28 80.68 -28 80 C-27.34 80 -26.68 80 -26 80 C-26 79.01 -26 78.02 -26 77 C-25.38125 76.7525 -24.7625 76.505 -24.125 76.25 C-21.57496075 74.74997691 -21.23777652 73.6302751 -20 71 C-18.66666667 69.66666667 -17.33333333 68.33333333 -16 67 C-15.505 65.515 -15.505 65.515 -15 64 C-14.34 64 -13.68 64 -13 64 C-11.53060547 59.69677317 -10.22556737 55.37702633 -9 51 C-8.34 51 -7.68 51 -7 51 C-3.44444136 37.15702503 -1.89331887 23.44392473 -1.34130859 9.20654297 C-1.20655364 5.92335952 -1.04510768 3.13532304 0 0 Z " fill="#351454" transform="translate(569,106)"/>
<path d="M0 0 C0.66 0 1.32 0 2 0 C1.99476318 0.55461914 1.98952637 1.10923828 1.98413086 1.68066406 C1.96328969 4.20376443 1.95031718 6.72684664 1.9375 9.25 C1.92912109 10.12269531 1.92074219 10.99539063 1.91210938 11.89453125 C1.90888672 12.73886719 1.90566406 13.58320313 1.90234375 14.453125 C1.89710693 15.22817383 1.89187012 16.00322266 1.88647461 16.80175781 C1.91148378 18.9454577 1.91148378 18.9454577 2.5057373 20.71313477 C3.16896095 23.78175214 3.07328603 26.64880626 3.02172852 29.78808594 C3.01212097 30.46166641 3.00251343 31.13524689 2.99261475 31.82923889 C2.95972778 34.0477274 2.91935667 36.26601259 2.87890625 38.484375 C2.85459504 40.0256479 2.83075199 41.56692824 2.80735779 43.10821533 C2.74461638 47.15904241 2.67552174 51.2097371 2.60510254 55.26043701 C2.53432914 59.39621975 2.46956612 63.53209613 2.40429688 67.66796875 C2.27541275 75.77874954 2.13981653 83.88940033 2 92 C1.34 92 0.68 92 0 92 C0 61.64 0 31.28 0 0 Z " fill="#3E0751" transform="translate(205,0)"/>
<path d="M0 0 C0.66 0 1.32 0 2 0 C3.2546101 3.83474019 3.09383963 7.6317387 3.02172852 11.61425781 C3.01212097 12.37562042 3.00251343 13.13698303 2.99261475 13.92141724 C2.95969571 16.43208267 2.9193365 18.94257022 2.87890625 21.453125 C2.85459819 23.196181 2.83075498 24.93924354 2.80735779 26.68231201 C2.74458508 31.26578227 2.67549916 35.84913646 2.60510254 40.43249512 C2.53435753 45.11119307 2.46957748 49.78997318 2.40429688 54.46875 C2.27537237 63.64592363 2.13977886 72.82298572 2 82 C1.34 82 0.68 82 0 82 C0 54.94 0 27.88 0 0 Z " fill="#381554" transform="translate(333,0)"/>
<path d="M0 0 C2 2 2 2 2.22705078 5.89892578 C2.22673341 7.58108793 2.21539396 9.26327019 2.1953125 10.9453125 C2.1924826 11.8303244 2.18965271 12.7153363 2.18673706 13.62716675 C2.1755224 16.45991412 2.1504157 19.29234784 2.125 22.125 C2.11497185 24.04296419 2.10584572 25.96093333 2.09765625 27.87890625 C2.07557889 32.58605876 2.04104045 37.29297616 2 42 C2.60247559 41.96970703 3.20495117 41.93941406 3.82568359 41.90820312 C16.89511366 41.26328913 29.91466729 40.85297379 43 41 C43.66 39.68 44.32 38.36 45 37 C45.38218767 38.65614657 45.71395102 40.32457024 46 42 C45 43 45 43 43.17137146 43.12025452 C42.37417191 43.11803391 41.57697235 43.11581329 40.75561523 43.11352539 C39.85475693 43.11344986 38.95389862 43.11337433 38.02574158 43.11329651 C37.04658279 43.10813522 36.06742401 43.10297394 35.05859375 43.09765625 C34.06118668 43.0962413 33.0637796 43.09482635 32.03614807 43.09336853 C28.83656876 43.08775114 25.63705831 43.07519571 22.4375 43.0625 C20.27408955 43.05748724 18.11067801 43.05292395 15.94726562 43.04882812 C10.63148675 43.03777607 5.31574829 43.02102104 0 43 C-1.18900594 39.43298217 -1.14340298 36.19195715 -1.1328125 32.48046875 C-1.13376923 31.74427811 -1.13472595 31.00808746 -1.13571167 30.24958801 C-1.13639182 28.69202591 -1.134549 27.13446095 -1.13037109 25.5769043 C-1.12504339 23.20680264 -1.13030976 20.83689246 -1.13671875 18.46679688 C-1.13605749 16.95052042 -1.13477534 15.43424408 -1.1328125 13.91796875 C-1.13483673 13.21463913 -1.13686096 12.51130951 -1.13894653 11.78666687 C-1.11999529 7.75510729 -0.77645198 3.9558956 0 0 Z " fill="#260C66" transform="translate(206,162)"/>
<path d="M0 0 C1.32 0 2.64 0 4 0 C3.67 15.84 3.34 31.68 3 48 C2.01 48.495 2.01 48.495 1 49 C-0.19791173 46.60417654 -0.1206744 45.13222462 -0.11352539 42.45849609 C-0.11344986 41.51767181 -0.11337433 40.57684753 -0.11329651 39.60751343 C-0.10555458 38.08089584 -0.10555458 38.08089584 -0.09765625 36.5234375 C-0.0962413 35.48305328 -0.09482635 34.44266907 -0.09336853 33.37075806 C-0.08775866 30.03880979 -0.07520447 26.70692805 -0.0625 23.375 C-0.05748627 21.11979264 -0.05292314 18.86458422 -0.04882812 16.609375 C-0.03778603 11.07289386 -0.02103827 5.53645168 0 0 Z " fill="#390F63" transform="translate(407,0)"/>
<path d="M0 0 C0.33 0 0.66 0 1 0 C0.98839844 1.17691406 0.97679687 2.35382813 0.96484375 3.56640625 C-0.65166063 35.72842794 -0.65166063 35.72842794 10 65 C10.73476563 66.04800781 10.73476563 66.04800781 11.484375 67.1171875 C11.90203125 67.69726562 12.3196875 68.27734375 12.75 68.875 C13.86375 70.421875 13.86375 70.421875 15 72 C10.0517322 69.98403904 6.91222022 66.56380609 4.25 62 C3 59 3 59 2.5 56.25 C2.18927121 53.62647138 2.18927121 53.62647138 -1 52 C-1.22265625 49.5390625 -1.22265625 49.5390625 -1.0625 46.625 C-0.85834767 42.7408711 -0.95578336 40.35665145 -3 37 C-2.34 36.34 -1.68 35.68 -1 35 C-0.7390138 32.99952504 -0.7390138 32.99952504 -0.83984375 30.703125 C-0.85144531 29.83260498 -0.86304688 28.96208496 -0.875 28.06518555 C-0.895625 27.13617432 -0.91625 26.20716309 -0.9375 25.25 C-1.04208995 16.7644142 -0.79575924 8.45494195 0 0 Z " fill="#2A0D47" transform="translate(451,85)"/>
<path d="M0 0 C-1 1 -1 1 -3.62586975 1.12025452 C-4.79613205 1.11803391 -5.96639435 1.11581329 -7.17211914 1.11352539 C-8.13794167 1.11374443 -8.13794167 1.11374443 -9.12327576 1.1139679 C-11.26060303 1.11326885 -13.39784413 1.10547691 -15.53515625 1.09765625 C-17.01346285 1.09579204 -18.49177007 1.09436815 -19.97007751 1.09336853 C-23.86798802 1.08954359 -27.76586149 1.07971352 -31.66375732 1.06866455 C-35.63846333 1.05844992 -39.61317529 1.0538708 -43.58789062 1.04882812 C-51.391944 1.03809122 -59.19596682 1.02101509 -67 1 C-67 0.34 -67 -0.32 -67 -1 C-58.55979188 -1.17684565 -50.11947073 -1.34280883 -41.67878151 -1.49477577 C-37.75968298 -1.56567989 -33.84073199 -1.64036997 -29.921875 -1.72363281 C-26.14190567 -1.80380676 -22.36187098 -1.87413964 -18.58158493 -1.93757248 C-17.13738604 -1.96355115 -15.69324711 -1.9931112 -14.2491951 -2.02626419 C-12.23093708 -2.07199577 -10.21238119 -2.1039616 -8.19384766 -2.13525391 C-7.04357086 -2.15746002 -5.89329407 -2.17966614 -4.7081604 -2.20254517 C-2 -2 -2 -2 0 0 Z " fill="#351255" transform="translate(67,36)"/>
<path d="M0 0 C0.66 0 1.32 0 2 0 C2.268125 0.969375 2.53625 1.93875 2.8125 2.9375 C3.204375 3.948125 3.59625 4.95875 4 6 C4.99 6.33 5.98 6.66 7 7 C8.43150342 9.51385966 9.54708015 12.10623214 10.71875 14.75 C11.85140996 17.32153095 11.85140996 17.32153095 15 18 C15.30164063 18.6084375 15.60328125 19.216875 15.9140625 19.84375 C17.28400497 22.56392354 18.92715375 23.7108765 21.375 25.5 C23.77033305 27.26245241 25.91722673 28.91228013 27.9609375 31.078125 C30.27882092 33.26279673 32.2746306 34.15381127 35.25 35.25 C36.14203125 35.58515625 37.0340625 35.9203125 37.953125 36.265625 C38.62859375 36.50796875 39.3040625 36.7503125 40 37 C40 37.66 40 38.32 40 39 C40.99 39.33 41.98 39.66 43 40 C42.01 40.495 42.01 40.495 41 41 C22.9201674 34.06407706 7.99242529 19.61293722 0 2 C0 1.34 0 0.68 0 0 Z " fill="#351155" transform="translate(415,160)"/>
<path d="M0 0 C33.66 0 67.32 0 102 0 C102.495 1.98 102.495 1.98 103 4 C102.34 4 101.68 4 101 4 C101 3.34 101 2.68 101 2 C67.67 1.67 34.34 1.34 0 1 C0 0.67 0 0.34 0 0 Z " fill="#A38EB6" transform="translate(720,167)"/>
<path d="M0 0 C1.28671107 2.51796045 2.41568469 5.00457133 3.5 7.625 C5.9162152 12.54011456 9.69128045 15.91113173 13.66015625 19.60546875 C18.19364636 24.24491689 19.85565107 28.54871303 20 35 C19.79433148 38.35287524 19.44345012 41.67071294 19 45 C18.34 44.67 17.68 44.34 17 44 C17.04640625 42.90300781 17.0928125 41.80601562 17.140625 40.67578125 C17.1781579 39.2213815 17.21455643 37.76695217 17.25 36.3125 C17.28351562 35.59126953 17.31703125 34.87003906 17.3515625 34.12695312 C17.42074936 30.33897277 17.31690636 28.48844915 15.203125 25.23046875 C14.47609375 24.49441406 13.7490625 23.75835937 13 23 C12.4121875 22.319375 11.824375 21.63875 11.21875 20.9375 C10.6515625 20.298125 10.084375 19.65875 9.5 19 C7.49016281 16.73304078 5.62504517 14.49648922 3.8125 12.0625 C1.86890248 9.85082007 0.88588781 9.30920227 -2 9 C-2.97110486 5.97878489 -3.13617383 3.99536737 -2 1 C-1.34 0.67 -0.68 0.34 0 0 Z " fill="#9F88B3" transform="translate(909,148)"/>
<path d="M0 0 C2.3125 1.25 2.3125 1.25 3.3125 3.25 C3.39676094 4.9174606 3.41975143 6.58825187 3.41015625 8.2578125 C3.40693359 9.24394531 3.40371094 10.23007813 3.40039062 11.24609375 C3.39201172 12.27863281 3.38363281 13.31117187 3.375 14.375 C3.37048828 15.41527344 3.36597656 16.45554687 3.36132812 17.52734375 C3.34951952 20.10161962 3.33305075 22.67578146 3.3125 25.25 C2.6525 24.92 1.9925 24.59 1.3125 24.25 C0.9825 17.32 0.6525 10.39 0.3125 3.25 C-1.0075 3.25 -2.3275 3.25 -3.6875 3.25 C-4.0175 6.88 -4.3475 10.51 -4.6875 14.25 C-5.3475 13.92 -6.0075 13.59 -6.6875 13.25 C-7.3125 10.6875 -7.3125 10.6875 -7.6875 8.25 C-7.0275 8.25 -6.3675 8.25 -5.6875 8.25 C-6.0175 5.94 -6.3475 3.63 -6.6875 1.25 C-4.03583924 -0.51777384 -3.14407099 -0.87741516 0 0 Z " fill="#9D83B5" transform="translate(938.6875,66.75)"/>
<path d="M0 0 C0.66 0.33 1.32 0.66 2 1 C-0.77047629 15.37388287 -0.77047629 15.37388287 -6 20 C-7.0828125 21.4540625 -7.0828125 21.4540625 -8.1875 22.9375 C-11.10497272 26.493447 -14.69378851 28.46850219 -19 30 C-19.99 30 -20.98 30 -22 30 C-22 29.34 -22 28.68 -22 28 C-21.34773438 27.72027344 -20.69546875 27.44054687 -20.0234375 27.15234375 C-10.22904743 22.6596368 -6.29466586 17.39377596 -1.98046875 7.6484375 C-1.03677628 5.09933991 -0.44927493 2.67632595 0 0 Z " fill="#371454" transform="translate(524,133)"/>
<path d="M0 0 C2.02992549 2.02992549 2.55749835 3.09052907 3.515625 5.71875 C3.79462646 6.47824951 4.07362793 7.23774902 4.36108398 8.02026367 C4.65442627 8.83857666 4.94776855 9.65688965 5.25 10.5 C5.55429932 11.33700439 5.85859863 12.17400879 6.17211914 13.03637695 C9.27569809 21.63703427 12.16489594 30.30775789 15 39 C14.34 39 13.68 39 13 39 C11.05529189 34.27149653 9.13647096 29.55414585 7.5625 24.6875 C4.95169323 14.63570866 4.95169323 14.63570866 0 6 C-0.04080783 4.00041636 -0.04254356 1.99954746 0 0 Z " fill="#A286B4" transform="translate(997,105)"/>
<path d="M0 0 C0.33 0 0.66 0 1 0 C1.19456544 9.24185818 1.16951593 18.36699401 0.125 27.5625 C0.04652832 28.2939624 -0.03194336 29.0254248 -0.11279297 29.77905273 C-0.33151456 31.53071463 -0.6558461 33.26860847 -1 35 C-1.99 35.495 -1.99 35.495 -3 36 C-3.027193 34.41676312 -3.04648306 32.83338938 -3.0625 31.25 C-3.07410156 30.36828125 -3.08570313 29.4865625 -3.09765625 28.578125 C-3 26 -3 26 -2.51147461 24.11645508 C-1.97247774 21.88611433 -1.81055253 19.84950635 -1.71875 17.55859375 C-1.68136719 16.72779297 -1.64398437 15.89699219 -1.60546875 15.04101562 C-1.53499827 13.30143868 -1.46468647 11.56185531 -1.39453125 9.82226562 C-1.35714844 8.99275391 -1.31976562 8.16324219 -1.28125 7.30859375 C-1.25095703 6.55376709 -1.22066406 5.79894043 -1.18945312 5.02124023 C-1 3 -1 3 0 0 Z " fill="#2C0E43" transform="translate(569,106)"/>
<path d="M0 0 C1.32 0 2.64 0 4 0 C3.85980308 2.81288705 3.71312045 5.62516885 3.5625 8.4375 C3.50352539 9.64116211 3.50352539 9.64116211 3.44335938 10.86914062 C3.11328125 16.88671875 3.11328125 16.88671875 2 18 C1.76924918 19.34747084 1.58846937 20.70377565 1.4375 22.0625 C1.293125 23.361875 1.14875 24.66125 1 26 C0.67 26 0.34 26 0 26 C0 17.42 0 8.84 0 0 Z " fill="#320B69" transform="translate(407,0)"/>
<path d="M0 0 C1.0625 1.875 1.0625 1.875 2 4 C1.67 4.66 1.34 5.32 1 6 C-13.85 6 -28.7 6 -44 6 C-44.33 5.34 -44.66 4.68 -45 4 C-30.48 4 -15.96 4 -1 4 C-0.67 2.68 -0.34 1.36 0 0 Z " fill="#381B54" transform="translate(250,199)"/>
<path d="M0 0 C0.66 0 1.32 0 2 0 C2 0.66 2 1.32 2 2 C2.66 2 3.32 2 4 2 C3.67 3.32 3.34 4.64 3 6 C3.66 6.33 4.32 6.66 5 7 C4.34 7 3.68 7 3 7 C3.144375 7.7734375 3.28875 8.546875 3.4375 9.34375 C4.50404262 15.32823915 5.23371637 20.92337435 5 27 C4.34 27 3.68 27 3 27 C2.01 18.09 1.02 9.18 0 0 Z " fill="#9D83B5" transform="translate(960,91)"/>
<path d="M0 0 C2 2 2 2 2.1171875 4.27734375 C1.99730469 5.59412109 1.99730469 5.59412109 1.875 6.9375 C1.81054688 7.81277344 1.74609375 8.68804687 1.6796875 9.58984375 C0.81659974 12.6503331 -0.47144217 13.18289951 -3 15 C-4.10805199 17.2447661 -4.10805199 17.2447661 -4.75 19.6875 C-4.99234375 20.49574219 -5.2346875 21.30398437 -5.484375 22.13671875 C-5.65453125 22.75160156 -5.8246875 23.36648437 -6 24 C-6.66 23.67 -7.32 23.34 -8 23 C-7.79318604 22.40985107 -7.58637207 21.81970215 -7.37329102 21.21166992 C-6.43612696 18.53702844 -5.49930963 15.86226564 -4.5625 13.1875 C-4.07426758 11.7943457 -4.07426758 11.7943457 -3.57617188 10.37304688 C-3.10727539 9.0340332 -3.10727539 9.0340332 -2.62890625 7.66796875 C-2.34088135 6.84578857 -2.05285645 6.0236084 -1.75610352 5.17651367 C-1.15817501 3.45532136 -0.57619628 1.72858883 0 0 Z " fill="#9F84B5" transform="translate(883,82)"/>
<path d="M0 0 C-14.11931818 7.44318182 -14.11931818 7.44318182 -19.4375 6.625 C-19.953125 6.41875 -20.46875 6.2125 -21 6 C-18.78046036 3.78046036 -17.08946346 3.08175246 -14.1875 1.9375 C-13.33542969 1.59589844 -12.48335937 1.25429687 -11.60546875 0.90234375 C-7.4191951 -0.54747516 -4.29051214 -1.43017071 0 0 Z " fill="#341354" transform="translate(532,196)"/>
<path d="M0 0 C0.66 0 1.32 0 2 0 C3.17829199 2.35658397 3.04414372 3.52573236 2.87890625 6.1328125 C2.83056641 6.93847656 2.78222656 7.74414062 2.73242188 8.57421875 C2.64831055 9.83685547 2.64831055 9.83685547 2.5625 11.125 C2.51029297 11.97449219 2.45808594 12.82398438 2.40429688 13.69921875 C2.27448622 15.79979124 2.1378826 17.89994191 2 20 C1.34 20 0.68 20 0 20 C0 13.4 0 6.8 0 0 Z " fill="#44085A" transform="translate(205,129)"/>
<path d="M0 0 C0.66 0 1.32 0 2 0 C2.52589789 6.17930023 1.07234135 10.62340265 -2 16 C-4.25 18.5625 -4.25 18.5625 -6 20 C-6 16.56407483 -5.19472215 15.22776506 -3.5625 12.25 C-1.37184904 8.02959335 -0.30809143 4.72406859 0 0 Z " fill="#9D85B4" transform="translate(965,144)"/>
<path d="M0 0 C1.96938993 3.93877986 2.41424609 6.19444987 2.75 10.5 C2.84796875 11.6240625 2.9459375 12.748125 3.046875 13.90625 C3.00051335 16.9661187 2.6207116 18.45672949 1 21 C0.67 21 0.34 21 0 21 C0 14.07 0 7.14 0 0 Z " fill="#3E0F68" transform="translate(567,89)"/>
<path d="M0 0 C2.45453691 3.68180536 3.72299097 7.41018617 5.1875 11.5625 C5.47302734 12.34302734 5.75855469 13.12355469 6.05273438 13.92773438 C6.76316564 15.93111596 7.38825059 17.9643151 8 20 C7.67 20.66 7.34 21.32 7 22 C1.34579364 16.34579364 0.32547254 7.64860472 0 0 Z " fill="#9A84B0" transform="translate(959,1)"/>
<path d="M0 0 C-1.13821919 3.93998952 -2.14588099 6.14588099 -5 9 C-5.72197162 11.60611077 -5.72197162 11.60611077 -6 14 C-6.66 14 -7.32 14 -8 14 C-8.33 14.66 -8.66 15.32 -9 16 C-8.44353679 10.57448372 -6.64754321 5.74559632 -4 1 C-2 0 -2 0 0 0 Z " fill="#A289B8" transform="translate(870,129)"/>
<path d="M0 0 C0.66 0 1.32 0 2 0 C4.31 5.94 6.62 11.88 9 18 C8.01 18.33 7.02 18.66 6 19 C5.88785156 18.49984375 5.77570312 17.9996875 5.66015625 17.484375 C4.7400777 14.02183089 3.58240641 10.64302797 2.4375 7.25 C2.20353516 6.55261719 1.96957031 5.85523437 1.72851562 5.13671875 C1.15370621 3.4240213 0.57703725 1.71194814 0 0 Z " fill="#9F88B5" transform="translate(988,84)"/>
<path d="M0 0 C0.33 0 0.66 0 1 0 C1 5.28 1 10.56 1 16 C0.34 16 -0.32 16 -1 16 C-1.33 12.37 -1.66 8.74 -2 5 C-1.34 5 -0.68 5 0 5 C0 3.35 0 1.7 0 0 Z " fill="#350C66" transform="translate(207,144)"/>
<path d="M0 0 C0 0.66 0 1.32 0 2 C-5.58962648 5.1593541 -8.85709207 5.06792818 -15.05859375 3.54296875 C-15.69925781 3.36378906 -16.33992188 3.18460938 -17 3 C-17 2.67 -17 2.34 -17 2 C-14.54187409 1.66507287 -12.08352273 1.3319903 -9.625 1 C-8.92632812 0.90460938 -8.22765625 0.80921875 -7.5078125 0.7109375 C-2.2265625 0 -2.2265625 0 0 0 Z " fill="#3A155C" transform="translate(501,162)"/>
<path d="M0 0 C1.64826111 2.96687001 2.44271087 5.65626525 3 9 C1.35 9 -0.3 9 -2 9 C-2.97110486 5.97878489 -3.13617383 3.99536737 -2 1 C-1.34 0.67 -0.68 0.34 0 0 Z " fill="#A387BF" transform="translate(909,148)"/>
<path d="M0 0 C0.99 0.33 1.98 0.66 3 1 C2.67 3.97 2.34 6.94 2 10 C0.02 10 -1.96 10 -4 10 C-2.625 8.5 -2.625 8.5 -1 7 C-0.34 7 0.32 7 1 7 C0.67 4.69 0.34 2.38 0 0 Z " fill="#A58AB9" transform="translate(924,195)"/>
<path d="M0 0 C2 1 2 1 3 3 C2.01 3.495 2.01 3.495 1 4 C0.31527335 5.88764903 0.31527335 5.88764903 -0.125 8.0625 C-0.29257812 8.79597656 -0.46015625 9.52945313 -0.6328125 10.28515625 C-0.75398437 10.85105469 -0.87515625 11.41695312 -1 12 C-1.66 12 -2.32 12 -3 12 C-3 12.66 -3 13.32 -3 14 C-3.66 13.67 -4.32 13.34 -5 13 C-3.35 8.71 -1.7 4.42 0 0 Z " fill="#9A84B1" transform="translate(843,191)"/>
<path d="M0 0 C0.33 0.66 0.66 1.32 1 2 C1.66 2 2.32 2 3 2 C3 4.97 3 7.94 3 11 C2.01 11 1.02 11 0 11 C0 7.37 0 3.74 0 0 Z " fill="#2B0969" transform="translate(205,118)"/>
<path d="M0 0 C2 2 2 2 2.265625 4.05859375 C2.25789062 5.23615234 2.25789062 5.23615234 2.25 6.4375 C2.25515625 7.21996094 2.2603125 8.00242188 2.265625 8.80859375 C2 11 2 11 0 14 C-0.77916092 8.97874074 -1.13016601 5.02296004 0 0 Z " fill="#350D65" transform="translate(206,162)"/>
<path d="M0 0 C5 1.66666667 10 3.33333333 15 5 C14.67 5.66 14.34 6.32 14 7 C4.0872211 5.1643002 4.0872211 5.1643002 0 2 C0 1.34 0 0.68 0 0 Z " fill="#3C1756" transform="translate(468,158)"/>
<path d="M0 0 C0.33 0 0.66 0 1 0 C1 4.95 1 9.9 1 15 C0.34 14.67 -0.32 14.34 -1 14 C-1.484375 11.85546875 -1.484375 11.85546875 -1.75 9.1875 C-1.84796875 8.31480469 -1.9459375 7.44210938 -2.046875 6.54296875 C-1.99616561 3.79198442 -1.41135409 2.32873426 0 0 Z " fill="#9C85B0" transform="translate(932,82)"/>
<path d="M0 0 C-3.72965139 2.03435531 -5.66905042 3 -10 3 C-11.67225729 3.30404678 -13.34080104 3.63128912 -15 4 C-10.85384107 0.35138015 -5.42017988 -2.16807195 0 0 Z " fill="#351063" transform="translate(532,196)"/>
<path d="M0 0 C0 3.63 0 7.26 0 11 C-0.99 11.495 -0.99 11.495 -2 12 C-3.20272819 9.59454362 -3.10071472 8.05003047 -3.0625 5.375 C-3.05347656 4.55773438 -3.04445313 3.74046875 -3.03515625 2.8984375 C-3.02355469 2.27195313 -3.01195312 1.64546875 -3 1 C-1 0 -1 0 0 0 Z " fill="#430B5F" transform="translate(410,37)"/>
<path d="M0 0 C2.92602095 1.46301048 3.09705209 3.41022764 4.1875 6.4375 C4.55230469 7.42621094 4.91710937 8.41492188 5.29296875 9.43359375 C6 12 6 12 5 14 C1.93757784 9.15939723 0.46588495 5.70709064 0 0 Z " fill="#9C85B2" transform="translate(1018,163)"/>
<path d="M0 0 C0.66 0.66 1.32 1.32 2 2 C-1.9813783 3.3271261 -5.85045227 3.06915913 -10 3 C-7.30045271 -0.81112559 -4.38454651 -0.39859514 0 0 Z " fill="#371352" transform="translate(509,202)"/>
<path d="M0 0 C0.66 0 1.32 0 2 0 C1.67 2.97 1.34 5.94 1 9 C0.01 8.67 -0.98 8.34 -2 8 C-1.34 5.36 -0.68 2.72 0 0 Z " fill="#9B80B3" transform="translate(915,72)"/>
<path d="M0 0 C0.33 0 0.66 0 1 0 C1.33 3.63 1.66 7.26 2 11 C1.01 10.67 0.02 10.34 -1 10 C-0.67 6.7 -0.34 3.4 0 0 Z " fill="#AB95C2" transform="translate(821,194)"/>
<path d="M0 0 C1.32 0 2.64 0 4 0 C4 0.99 4 1.98 4 3 C5.32 3.33 6.64 3.66 8 4 C7.01 4.495 7.01 4.495 6 5 C3.96855359 4.06553465 1.96466413 3.06775224 0 2 C0 1.34 0 0.68 0 0 Z " fill="#3F0F63" transform="translate(464,157)"/>
</svg>
